<mxfile host="app.diagrams.net" modified="2024-04-27T11:02:04.481Z" agent="Mozilla/5.0 (X11; Ubuntu; Linux x86_64; rv:124.0) Gecko/20100101 Firefox/124.0" etag="JvfXTkKiU0SMOEEPQ0sL" version="24.3.0" type="github">
  <diagram id="C5RBs43oDa-KdzZeNtuy" name="Page-1">
    <mxGraphModel dx="994" dy="579" grid="1" gridSize="10" guides="1" tooltips="1" connect="1" arrows="1" fold="1" page="1" pageScale="1" pageWidth="1654" pageHeight="1169" math="0" shadow="0">
      <root>
        <mxCell id="WIyWlLk6GJQsqaUBKTNV-0" />
        <mxCell id="WIyWlLk6GJQsqaUBKTNV-1" parent="WIyWlLk6GJQsqaUBKTNV-0" />
        <mxCell id="m9jgLpb1DIKgx4cPur0r-12" value="Clinic" style="whiteSpace=wrap;html=1;align=center;" parent="WIyWlLk6GJQsqaUBKTNV-1" vertex="1">
          <mxGeometry x="193" y="147" width="100" height="40" as="geometry" />
        </mxCell>
        <mxCell id="m9jgLpb1DIKgx4cPur0r-13" value="" style="endArrow=none;html=1;rounded=0;exitX=0.5;exitY=0;exitDx=0;exitDy=0;entryX=0;entryY=1;entryDx=0;entryDy=0;" parent="WIyWlLk6GJQsqaUBKTNV-1" source="m9jgLpb1DIKgx4cPur0r-12" target="m9jgLpb1DIKgx4cPur0r-14" edge="1">
          <mxGeometry relative="1" as="geometry">
            <mxPoint x="403" y="267" as="sourcePoint" />
            <mxPoint x="473" y="267" as="targetPoint" />
          </mxGeometry>
        </mxCell>
        <mxCell id="m9jgLpb1DIKgx4cPur0r-14" value="Telephone Number" style="ellipse;whiteSpace=wrap;html=1;align=center;" parent="WIyWlLk6GJQsqaUBKTNV-1" vertex="1">
          <mxGeometry x="316.5" y="94.5" width="100" height="45" as="geometry" />
        </mxCell>
        <mxCell id="m9jgLpb1DIKgx4cPur0r-15" value="" style="endArrow=none;html=1;rounded=0;exitX=0.5;exitY=0;exitDx=0;exitDy=0;" parent="WIyWlLk6GJQsqaUBKTNV-1" source="m9jgLpb1DIKgx4cPur0r-12" target="m9jgLpb1DIKgx4cPur0r-16" edge="1">
          <mxGeometry relative="1" as="geometry">
            <mxPoint x="333" y="317" as="sourcePoint" />
            <mxPoint x="413" y="257" as="targetPoint" />
          </mxGeometry>
        </mxCell>
        <mxCell id="m9jgLpb1DIKgx4cPur0r-16" value="Address" style="ellipse;whiteSpace=wrap;html=1;align=center;" parent="WIyWlLk6GJQsqaUBKTNV-1" vertex="1">
          <mxGeometry x="193" y="57" width="100" height="40" as="geometry" />
        </mxCell>
        <mxCell id="m9jgLpb1DIKgx4cPur0r-17" value="&lt;u&gt;Name&lt;/u&gt;" style="ellipse;whiteSpace=wrap;html=1;align=center;" parent="WIyWlLk6GJQsqaUBKTNV-1" vertex="1">
          <mxGeometry x="73" y="97" width="100" height="40" as="geometry" />
        </mxCell>
        <mxCell id="m9jgLpb1DIKgx4cPur0r-18" value="" style="endArrow=none;html=1;rounded=0;entryX=1;entryY=1;entryDx=0;entryDy=0;exitX=0.5;exitY=0;exitDx=0;exitDy=0;" parent="WIyWlLk6GJQsqaUBKTNV-1" source="m9jgLpb1DIKgx4cPur0r-12" target="m9jgLpb1DIKgx4cPur0r-17" edge="1">
          <mxGeometry relative="1" as="geometry">
            <mxPoint x="413" y="297" as="sourcePoint" />
            <mxPoint x="493" y="317" as="targetPoint" />
          </mxGeometry>
        </mxCell>
        <mxCell id="m9jgLpb1DIKgx4cPur0r-20" value="Health Staff" style="whiteSpace=wrap;html=1;align=center;" parent="WIyWlLk6GJQsqaUBKTNV-1" vertex="1">
          <mxGeometry x="245" y="396" width="100" height="40" as="geometry" />
        </mxCell>
        <mxCell id="m9jgLpb1DIKgx4cPur0r-22" value="" style="endArrow=none;html=1;rounded=0;exitX=1;exitY=1;exitDx=0;exitDy=0;entryX=0.5;entryY=0;entryDx=0;entryDy=0;" parent="WIyWlLk6GJQsqaUBKTNV-1" source="m9jgLpb1DIKgx4cPur0r-27" target="m9jgLpb1DIKgx4cPur0r-20" edge="1">
          <mxGeometry relative="1" as="geometry">
            <mxPoint x="170.3553390593272" y="340.14213562373084" as="sourcePoint" />
            <mxPoint x="535" y="246" as="targetPoint" />
          </mxGeometry>
        </mxCell>
        <mxCell id="m9jgLpb1DIKgx4cPur0r-23" value="Name" style="ellipse;whiteSpace=wrap;html=1;align=center;" parent="WIyWlLk6GJQsqaUBKTNV-1" vertex="1">
          <mxGeometry x="135" y="276" width="100" height="40" as="geometry" />
        </mxCell>
        <mxCell id="m9jgLpb1DIKgx4cPur0r-24" value="Address" style="ellipse;whiteSpace=wrap;html=1;align=center;" parent="WIyWlLk6GJQsqaUBKTNV-1" vertex="1">
          <mxGeometry x="245" y="256" width="100" height="40" as="geometry" />
        </mxCell>
        <mxCell id="m9jgLpb1DIKgx4cPur0r-25" value="Telephone Number" style="ellipse;whiteSpace=wrap;html=1;align=center;" parent="WIyWlLk6GJQsqaUBKTNV-1" vertex="1">
          <mxGeometry x="364" y="276" width="100" height="40" as="geometry" />
        </mxCell>
        <mxCell id="m9jgLpb1DIKgx4cPur0r-26" value="IBAN" style="ellipse;whiteSpace=wrap;html=1;align=center;" parent="WIyWlLk6GJQsqaUBKTNV-1" vertex="1">
          <mxGeometry x="405" y="336" width="100" height="40" as="geometry" />
        </mxCell>
        <mxCell id="m9jgLpb1DIKgx4cPur0r-27" value="NIF" style="ellipse;whiteSpace=wrap;html=1;align=center;fontStyle=4;" parent="WIyWlLk6GJQsqaUBKTNV-1" vertex="1">
          <mxGeometry x="75" y="336" width="100" height="40" as="geometry" />
        </mxCell>
        <mxCell id="m9jgLpb1DIKgx4cPur0r-29" value="" style="endArrow=none;html=1;rounded=0;exitX=0.5;exitY=1;exitDx=0;exitDy=0;entryX=0.5;entryY=0;entryDx=0;entryDy=0;" parent="WIyWlLk6GJQsqaUBKTNV-1" source="m9jgLpb1DIKgx4cPur0r-23" target="m9jgLpb1DIKgx4cPur0r-20" edge="1">
          <mxGeometry relative="1" as="geometry">
            <mxPoint x="205" y="355.38" as="sourcePoint" />
            <mxPoint x="365" y="355.38" as="targetPoint" />
          </mxGeometry>
        </mxCell>
        <mxCell id="m9jgLpb1DIKgx4cPur0r-30" value="" style="endArrow=none;html=1;rounded=0;exitX=0.5;exitY=1;exitDx=0;exitDy=0;entryX=0.5;entryY=0;entryDx=0;entryDy=0;" parent="WIyWlLk6GJQsqaUBKTNV-1" source="m9jgLpb1DIKgx4cPur0r-24" target="m9jgLpb1DIKgx4cPur0r-20" edge="1">
          <mxGeometry relative="1" as="geometry">
            <mxPoint x="375" y="246" as="sourcePoint" />
            <mxPoint x="535" y="246" as="targetPoint" />
          </mxGeometry>
        </mxCell>
        <mxCell id="m9jgLpb1DIKgx4cPur0r-31" value="" style="endArrow=none;html=1;rounded=0;exitX=0;exitY=1;exitDx=0;exitDy=0;entryX=0.5;entryY=0;entryDx=0;entryDy=0;" parent="WIyWlLk6GJQsqaUBKTNV-1" source="m9jgLpb1DIKgx4cPur0r-26" target="m9jgLpb1DIKgx4cPur0r-20" edge="1">
          <mxGeometry relative="1" as="geometry">
            <mxPoint x="375" y="246" as="sourcePoint" />
            <mxPoint x="535" y="246" as="targetPoint" />
          </mxGeometry>
        </mxCell>
        <mxCell id="m9jgLpb1DIKgx4cPur0r-32" value="" style="endArrow=none;html=1;rounded=0;exitX=0.5;exitY=1;exitDx=0;exitDy=0;entryX=0.5;entryY=0;entryDx=0;entryDy=0;" parent="WIyWlLk6GJQsqaUBKTNV-1" source="m9jgLpb1DIKgx4cPur0r-25" target="m9jgLpb1DIKgx4cPur0r-20" edge="1">
          <mxGeometry relative="1" as="geometry">
            <mxPoint x="375" y="246" as="sourcePoint" />
            <mxPoint x="535" y="246" as="targetPoint" />
          </mxGeometry>
        </mxCell>
        <mxCell id="m9jgLpb1DIKgx4cPur0r-33" style="edgeStyle=orthogonalEdgeStyle;rounded=0;orthogonalLoop=1;jettySize=auto;html=1;exitX=0.5;exitY=1;exitDx=0;exitDy=0;" parent="WIyWlLk6GJQsqaUBKTNV-1" source="m9jgLpb1DIKgx4cPur0r-26" target="m9jgLpb1DIKgx4cPur0r-26" edge="1">
          <mxGeometry relative="1" as="geometry" />
        </mxCell>
        <mxCell id="m9jgLpb1DIKgx4cPur0r-51" value="" style="endArrow=none;html=1;rounded=0;" parent="WIyWlLk6GJQsqaUBKTNV-1" edge="1">
          <mxGeometry relative="1" as="geometry">
            <mxPoint x="299" y="436" as="sourcePoint" />
            <mxPoint x="299" y="476" as="targetPoint" />
          </mxGeometry>
        </mxCell>
        <mxCell id="m9jgLpb1DIKgx4cPur0r-52" value="" style="endArrow=none;html=1;rounded=0;" parent="WIyWlLk6GJQsqaUBKTNV-1" edge="1">
          <mxGeometry relative="1" as="geometry">
            <mxPoint x="292" y="436" as="sourcePoint" />
            <mxPoint x="292" y="476" as="targetPoint" />
          </mxGeometry>
        </mxCell>
        <mxCell id="m9jgLpb1DIKgx4cPur0r-53" value="&lt;b&gt;X&lt;/b&gt;" style="triangle;whiteSpace=wrap;html=1;dashed=0;direction=north;labelPosition=center;verticalLabelPosition=middle;align=center;verticalAlign=middle;horizontal=1;" parent="WIyWlLk6GJQsqaUBKTNV-1" vertex="1">
          <mxGeometry x="271" y="470" width="49" height="46" as="geometry" />
        </mxCell>
        <mxCell id="m9jgLpb1DIKgx4cPur0r-54" value="" style="strokeWidth=2;html=1;shape=mxgraph.flowchart.annotation_2;align=left;labelPosition=right;pointerEvents=1;direction=south;" parent="WIyWlLk6GJQsqaUBKTNV-1" vertex="1">
          <mxGeometry x="190" y="516" width="210" height="70" as="geometry" />
        </mxCell>
        <mxCell id="m9jgLpb1DIKgx4cPur0r-55" value="Patient" style="whiteSpace=wrap;html=1;align=center;" parent="WIyWlLk6GJQsqaUBKTNV-1" vertex="1">
          <mxGeometry x="710" y="200" width="100" height="40" as="geometry" />
        </mxCell>
        <mxCell id="m9jgLpb1DIKgx4cPur0r-57" value="SNS Number" style="ellipse;whiteSpace=wrap;html=1;align=center;fontStyle=4;" parent="WIyWlLk6GJQsqaUBKTNV-1" vertex="1">
          <mxGeometry x="554" y="140" width="100" height="40" as="geometry" />
        </mxCell>
        <mxCell id="m9jgLpb1DIKgx4cPur0r-58" value="Name" style="ellipse;whiteSpace=wrap;html=1;align=center;" parent="WIyWlLk6GJQsqaUBKTNV-1" vertex="1">
          <mxGeometry x="574" y="80" width="100" height="40" as="geometry" />
        </mxCell>
        <mxCell id="m9jgLpb1DIKgx4cPur0r-59" value="NIF" style="ellipse;whiteSpace=wrap;html=1;align=center;" parent="WIyWlLk6GJQsqaUBKTNV-1" vertex="1">
          <mxGeometry x="654" y="40" width="100" height="40" as="geometry" />
        </mxCell>
        <mxCell id="m9jgLpb1DIKgx4cPur0r-60" value="Date of Birth" style="ellipse;whiteSpace=wrap;html=1;align=center;" parent="WIyWlLk6GJQsqaUBKTNV-1" vertex="1">
          <mxGeometry x="774" y="40" width="100" height="40" as="geometry" />
        </mxCell>
        <mxCell id="m9jgLpb1DIKgx4cPur0r-61" value="Address" style="ellipse;whiteSpace=wrap;html=1;align=center;" parent="WIyWlLk6GJQsqaUBKTNV-1" vertex="1">
          <mxGeometry x="854" y="80" width="100" height="40" as="geometry" />
        </mxCell>
        <mxCell id="m9jgLpb1DIKgx4cPur0r-62" value="Telephone Number" style="ellipse;whiteSpace=wrap;html=1;align=center;" parent="WIyWlLk6GJQsqaUBKTNV-1" vertex="1">
          <mxGeometry x="874" y="140" width="100" height="40" as="geometry" />
        </mxCell>
        <mxCell id="m9jgLpb1DIKgx4cPur0r-63" value="" style="endArrow=none;html=1;rounded=0;exitX=1;exitY=1;exitDx=0;exitDy=0;entryX=0.5;entryY=0;entryDx=0;entryDy=0;" parent="WIyWlLk6GJQsqaUBKTNV-1" source="m9jgLpb1DIKgx4cPur0r-57" target="m9jgLpb1DIKgx4cPur0r-55" edge="1">
          <mxGeometry relative="1" as="geometry">
            <mxPoint x="594" y="80" as="sourcePoint" />
            <mxPoint x="754" y="80" as="targetPoint" />
          </mxGeometry>
        </mxCell>
        <mxCell id="m9jgLpb1DIKgx4cPur0r-64" value="" style="endArrow=none;html=1;rounded=0;exitX=0.752;exitY=0.972;exitDx=0;exitDy=0;exitPerimeter=0;entryX=0.5;entryY=0;entryDx=0;entryDy=0;" parent="WIyWlLk6GJQsqaUBKTNV-1" source="m9jgLpb1DIKgx4cPur0r-58" target="m9jgLpb1DIKgx4cPur0r-55" edge="1">
          <mxGeometry relative="1" as="geometry">
            <mxPoint x="594" y="80" as="sourcePoint" />
            <mxPoint x="754" y="80" as="targetPoint" />
          </mxGeometry>
        </mxCell>
        <mxCell id="m9jgLpb1DIKgx4cPur0r-65" value="" style="endArrow=none;html=1;rounded=0;exitX=0.5;exitY=1;exitDx=0;exitDy=0;entryX=0.5;entryY=0;entryDx=0;entryDy=0;" parent="WIyWlLk6GJQsqaUBKTNV-1" source="m9jgLpb1DIKgx4cPur0r-59" target="m9jgLpb1DIKgx4cPur0r-55" edge="1">
          <mxGeometry relative="1" as="geometry">
            <mxPoint x="594" y="80" as="sourcePoint" />
            <mxPoint x="754" y="80" as="targetPoint" />
          </mxGeometry>
        </mxCell>
        <mxCell id="m9jgLpb1DIKgx4cPur0r-66" value="" style="endArrow=none;html=1;rounded=0;exitX=0.5;exitY=1;exitDx=0;exitDy=0;entryX=0.5;entryY=0;entryDx=0;entryDy=0;" parent="WIyWlLk6GJQsqaUBKTNV-1" source="m9jgLpb1DIKgx4cPur0r-60" target="m9jgLpb1DIKgx4cPur0r-55" edge="1">
          <mxGeometry relative="1" as="geometry">
            <mxPoint x="594" y="80" as="sourcePoint" />
            <mxPoint x="754" y="80" as="targetPoint" />
          </mxGeometry>
        </mxCell>
        <mxCell id="m9jgLpb1DIKgx4cPur0r-69" value="" style="endArrow=none;html=1;rounded=0;entryX=0;entryY=1;entryDx=0;entryDy=0;exitX=0.5;exitY=0;exitDx=0;exitDy=0;" parent="WIyWlLk6GJQsqaUBKTNV-1" source="m9jgLpb1DIKgx4cPur0r-55" target="m9jgLpb1DIKgx4cPur0r-61" edge="1">
          <mxGeometry relative="1" as="geometry">
            <mxPoint x="594" y="80" as="sourcePoint" />
            <mxPoint x="754" y="80" as="targetPoint" />
          </mxGeometry>
        </mxCell>
        <mxCell id="m9jgLpb1DIKgx4cPur0r-70" value="" style="endArrow=none;html=1;rounded=0;entryX=0;entryY=1;entryDx=0;entryDy=0;exitX=0.5;exitY=0;exitDx=0;exitDy=0;" parent="WIyWlLk6GJQsqaUBKTNV-1" source="m9jgLpb1DIKgx4cPur0r-55" target="m9jgLpb1DIKgx4cPur0r-62" edge="1">
          <mxGeometry relative="1" as="geometry">
            <mxPoint x="594" y="80" as="sourcePoint" />
            <mxPoint x="754" y="80" as="targetPoint" />
          </mxGeometry>
        </mxCell>
        <mxCell id="Ug5Aab7L-ogycdvRvUgF-1" value="Company" style="whiteSpace=wrap;html=1;align=center;" parent="WIyWlLk6GJQsqaUBKTNV-1" vertex="1">
          <mxGeometry x="1170" y="120" width="100" height="40" as="geometry" />
        </mxCell>
        <mxCell id="Ug5Aab7L-ogycdvRvUgF-2" value="Doctor" style="whiteSpace=wrap;html=1;align=center;" parent="WIyWlLk6GJQsqaUBKTNV-1" vertex="1">
          <mxGeometry x="135" y="586" width="100" height="40" as="geometry" />
        </mxCell>
        <mxCell id="Ug5Aab7L-ogycdvRvUgF-3" value="Specialty" style="ellipse;whiteSpace=wrap;html=1;align=center;" parent="WIyWlLk6GJQsqaUBKTNV-1" vertex="1">
          <mxGeometry x="65" y="516" width="100" height="40" as="geometry" />
        </mxCell>
        <mxCell id="Ug5Aab7L-ogycdvRvUgF-5" value="" style="endArrow=none;html=1;rounded=0;exitX=0.5;exitY=1;exitDx=0;exitDy=0;entryX=0.25;entryY=0;entryDx=0;entryDy=0;" parent="WIyWlLk6GJQsqaUBKTNV-1" source="Ug5Aab7L-ogycdvRvUgF-3" target="Ug5Aab7L-ogycdvRvUgF-2" edge="1">
          <mxGeometry relative="1" as="geometry">
            <mxPoint x="375" y="495" as="sourcePoint" />
            <mxPoint x="535" y="495" as="targetPoint" />
          </mxGeometry>
        </mxCell>
        <mxCell id="Ug5Aab7L-ogycdvRvUgF-6" value="Nurse" style="whiteSpace=wrap;html=1;align=center;" parent="WIyWlLk6GJQsqaUBKTNV-1" vertex="1">
          <mxGeometry x="355" y="586" width="100" height="40" as="geometry" />
        </mxCell>
        <mxCell id="Et_Y4IbL1bj8IcrV1LVP-0" value="Medical Appointment" style="whiteSpace=wrap;html=1;align=center;" parent="WIyWlLk6GJQsqaUBKTNV-1" vertex="1">
          <mxGeometry x="602" y="598" width="100" height="40" as="geometry" />
        </mxCell>
        <mxCell id="wnzAmotindl1bWf6jCQL-2" value="" style="endArrow=none;html=1;rounded=0;exitX=1;exitY=0.5;exitDx=0;exitDy=0;" edge="1" parent="WIyWlLk6GJQsqaUBKTNV-1" source="wnzAmotindl1bWf6jCQL-3" target="wnzAmotindl1bWf6jCQL-4">
          <mxGeometry relative="1" as="geometry">
            <mxPoint x="1192" y="304.30136986301363" as="sourcePoint" />
            <mxPoint x="1246.5976066784274" y="289.2131481912593" as="targetPoint" />
          </mxGeometry>
        </mxCell>
        <mxCell id="wnzAmotindl1bWf6jCQL-3" value="Health insurance" style="shape=ext;margin=3;double=1;whiteSpace=wrap;html=1;align=center;" vertex="1" parent="WIyWlLk6GJQsqaUBKTNV-1">
          <mxGeometry x="1092" y="303" width="100" height="40" as="geometry" />
        </mxCell>
        <mxCell id="wnzAmotindl1bWf6jCQL-4" value="&lt;span style=&quot;border-bottom: 1px dotted&quot;&gt;Name&lt;br&gt;&lt;/span&gt;" style="ellipse;whiteSpace=wrap;html=1;align=center;" vertex="1" parent="WIyWlLk6GJQsqaUBKTNV-1">
          <mxGeometry x="1222" y="283" width="100" height="40" as="geometry" />
        </mxCell>
        <mxCell id="wnzAmotindl1bWf6jCQL-10" value="Nursing Service" style="whiteSpace=wrap;html=1;align=center;" vertex="1" parent="WIyWlLk6GJQsqaUBKTNV-1">
          <mxGeometry x="811" y="598" width="100" height="40" as="geometry" />
        </mxCell>
        <mxCell id="wnzAmotindl1bWf6jCQL-17" value="&lt;div&gt;Name&lt;/div&gt;" style="ellipse;whiteSpace=wrap;html=1;align=center;fontStyle=4;" vertex="1" parent="WIyWlLk6GJQsqaUBKTNV-1">
          <mxGeometry x="1170" y="20" width="100" height="40" as="geometry" />
        </mxCell>
        <mxCell id="wnzAmotindl1bWf6jCQL-19" value="" style="endArrow=none;html=1;rounded=0;" edge="1" parent="WIyWlLk6GJQsqaUBKTNV-1" source="wnzAmotindl1bWf6jCQL-17" target="Ug5Aab7L-ogycdvRvUgF-1">
          <mxGeometry relative="1" as="geometry">
            <mxPoint x="1234" y="67" as="sourcePoint" />
            <mxPoint x="1170" y="187" as="targetPoint" />
          </mxGeometry>
        </mxCell>
        <mxCell id="wnzAmotindl1bWf6jCQL-20" value="" style="endArrow=none;html=1;rounded=0;dashed=1;dashPattern=1 2;" edge="1" parent="WIyWlLk6GJQsqaUBKTNV-1">
          <mxGeometry relative="1" as="geometry">
            <mxPoint x="175" y="780" as="sourcePoint" />
            <mxPoint x="1120" y="780" as="targetPoint" />
          </mxGeometry>
        </mxCell>
        <mxCell id="wnzAmotindl1bWf6jCQL-21" value="" style="resizable=0;html=1;whiteSpace=wrap;align=left;verticalAlign=bottom;" connectable="0" vertex="1" parent="wnzAmotindl1bWf6jCQL-20">
          <mxGeometry x="-1" relative="1" as="geometry" />
        </mxCell>
        <mxCell id="wnzAmotindl1bWf6jCQL-22" value="" style="resizable=0;html=1;whiteSpace=wrap;align=right;verticalAlign=bottom;" connectable="0" vertex="1" parent="wnzAmotindl1bWf6jCQL-20">
          <mxGeometry x="1" relative="1" as="geometry" />
        </mxCell>
        <mxCell id="wnzAmotindl1bWf6jCQL-23" value="" style="endArrow=none;html=1;rounded=0;dashed=1;dashPattern=1 2;" edge="1" parent="WIyWlLk6GJQsqaUBKTNV-1">
          <mxGeometry relative="1" as="geometry">
            <mxPoint x="1120" y="1040" as="sourcePoint" />
            <mxPoint x="1120" y="780" as="targetPoint" />
          </mxGeometry>
        </mxCell>
        <mxCell id="wnzAmotindl1bWf6jCQL-24" value="" style="resizable=0;html=1;whiteSpace=wrap;align=left;verticalAlign=bottom;" connectable="0" vertex="1" parent="wnzAmotindl1bWf6jCQL-23">
          <mxGeometry x="-1" relative="1" as="geometry" />
        </mxCell>
        <mxCell id="wnzAmotindl1bWf6jCQL-25" value="" style="resizable=0;html=1;whiteSpace=wrap;align=right;verticalAlign=bottom;" connectable="0" vertex="1" parent="wnzAmotindl1bWf6jCQL-23">
          <mxGeometry x="1" relative="1" as="geometry" />
        </mxCell>
        <mxCell id="wnzAmotindl1bWf6jCQL-26" value="" style="endArrow=none;html=1;rounded=0;dashed=1;dashPattern=1 2;" edge="1" parent="WIyWlLk6GJQsqaUBKTNV-1">
          <mxGeometry relative="1" as="geometry">
            <mxPoint x="173" y="1040" as="sourcePoint" />
            <mxPoint x="1120" y="1040" as="targetPoint" />
          </mxGeometry>
        </mxCell>
        <mxCell id="wnzAmotindl1bWf6jCQL-27" value="" style="resizable=0;html=1;whiteSpace=wrap;align=left;verticalAlign=bottom;" connectable="0" vertex="1" parent="wnzAmotindl1bWf6jCQL-26">
          <mxGeometry x="-1" relative="1" as="geometry" />
        </mxCell>
        <mxCell id="wnzAmotindl1bWf6jCQL-28" value="" style="resizable=0;html=1;whiteSpace=wrap;align=right;verticalAlign=bottom;" connectable="0" vertex="1" parent="wnzAmotindl1bWf6jCQL-26">
          <mxGeometry x="1" relative="1" as="geometry" />
        </mxCell>
        <mxCell id="wnzAmotindl1bWf6jCQL-29" value="" style="endArrow=none;html=1;rounded=0;dashed=1;dashPattern=1 2;" edge="1" parent="WIyWlLk6GJQsqaUBKTNV-1">
          <mxGeometry relative="1" as="geometry">
            <mxPoint x="172.3548387096774" y="1040" as="sourcePoint" />
            <mxPoint x="173" y="780" as="targetPoint" />
          </mxGeometry>
        </mxCell>
        <mxCell id="wnzAmotindl1bWf6jCQL-30" value="" style="resizable=0;html=1;whiteSpace=wrap;align=left;verticalAlign=bottom;" connectable="0" vertex="1" parent="wnzAmotindl1bWf6jCQL-29">
          <mxGeometry x="-1" relative="1" as="geometry" />
        </mxCell>
        <mxCell id="wnzAmotindl1bWf6jCQL-31" value="" style="resizable=0;html=1;whiteSpace=wrap;align=right;verticalAlign=bottom;" connectable="0" vertex="1" parent="wnzAmotindl1bWf6jCQL-29">
          <mxGeometry x="1" relative="1" as="geometry" />
        </mxCell>
      </root>
    </mxGraphModel>
  </diagram>
</mxfile>
